# xmcd CD database file
#
# Track frame offsets:
#	150
#	55598
#	85118
#	127205
#	164058
#	198155
#	225111
#	258660
#
# Disc length: 3832 seconds
#
# Revision: 0
# Processed by: cddbd v1.5.1PL2 Copyright (c) Steve Scherf et al.
# Submitted via: CDex 1.51
#
DISCID=640ef608
DTITLE=Comin and Goin - Xpressed Impressions
DYEAR=2006
DGENRE=Jazz
TTITLE0=Seven Steps Down To Earth
TTITLE1=Hot Stuff
TTITLE2=Alpine Childhood
TTITLE3=Three Steps Are Not Enough
TTITLE4=Little Dreamer
TTITLE5=Afrotic
TTITLE6=Never Ending
TTITLE7=Arirang
EXTD=YEAR: 2006
EXTT0=
EXTT1=
EXTT2=
EXTT3=
EXTT4=
EXTT5=
EXTT6=
EXTT7=
PLAYORDER=
